<svg width="209" height="32" viewBox="0 0 209 32" fill="none" xmlns="http://www.w3.org/2000/svg">
<path d="M145.993 24.5V8.23031H155.749V9.97803H147.964V15.4754H155.018V17.2231H147.964V24.5H145.993ZM172.851 16.3652C172.851 18.0811 172.541 19.564 171.921 20.8139C171.302 22.0638 170.452 23.0277 169.371 23.7056C168.291 24.3835 167.057 24.7224 165.669 24.7224C164.282 24.7224 163.048 24.3835 161.967 23.7056C160.887 23.0277 160.037 22.0638 159.417 20.8139C158.797 19.564 158.488 18.0811 158.488 16.3652C158.488 14.6492 158.797 13.1663 159.417 11.9164C160.037 10.6665 160.887 9.70263 161.967 9.02473C163.048 8.34682 164.282 8.00787 165.669 8.00787C167.057 8.00787 168.291 8.34682 169.371 9.02473C170.452 9.70263 171.302 10.6665 171.921 11.9164C172.541 13.1663 172.851 14.6492 172.851 16.3652ZM170.944 16.3652C170.944 14.9564 170.708 13.7674 170.237 12.7982C169.771 11.829 169.138 11.0955 168.338 10.5977C167.544 10.0998 166.654 9.85092 165.669 9.85092C164.684 9.85092 163.792 10.0998 162.992 10.5977C162.198 11.0955 161.565 11.829 161.093 12.7982C160.627 13.7674 160.394 14.9564 160.394 16.3652C160.394 17.7739 160.627 18.9629 161.093 19.9321C161.565 20.9013 162.198 21.6348 162.992 22.1326C163.792 22.6305 164.684 22.8794 165.669 22.8794C166.654 22.8794 167.544 22.6305 168.338 22.1326C169.138 21.6348 169.771 20.9013 170.237 19.9321C170.708 18.9629 170.944 17.7739 170.944 16.3652ZM189.891 16.3652C189.891 18.0811 189.581 19.564 188.962 20.8139C188.342 22.0638 187.492 23.0277 186.411 23.7056C185.331 24.3835 184.097 24.7224 182.709 24.7224C181.322 24.7224 180.088 24.3835 179.007 23.7056C177.927 23.0277 177.077 22.0638 176.457 20.8139C175.838 19.564 175.528 18.0811 175.528 16.3652C175.528 14.6492 175.838 13.1663 176.457 11.9164C177.077 10.6665 177.927 9.70263 179.007 9.02473C180.088 8.34682 181.322 8.00787 182.709 8.00787C184.097 8.00787 185.331 8.34682 186.411 9.02473C187.492 9.70263 188.342 10.6665 188.962 11.9164C189.581 13.1663 189.891 14.6492 189.891 16.3652ZM187.984 16.3652C187.984 14.9564 187.749 13.7674 187.277 12.7982C186.811 11.829 186.178 11.0955 185.379 10.5977C184.584 10.0998 183.695 9.85092 182.709 9.85092C181.724 9.85092 180.832 10.0998 180.032 10.5977C179.238 11.0955 178.605 11.829 178.134 12.7982C177.668 13.7674 177.435 14.9564 177.435 16.3652C177.435 17.7739 177.668 18.9629 178.134 19.9321C178.605 20.9013 179.238 21.6348 180.032 22.1326C180.832 22.6305 181.724 22.8794 182.709 22.8794C183.695 22.8794 184.584 22.6305 185.379 22.1326C186.178 21.6348 186.811 20.9013 187.277 19.9321C187.749 18.9629 187.984 17.7739 187.984 16.3652ZM198.224 24.5H193.204V8.23031H198.447C200.025 8.23031 201.376 8.55602 202.498 9.20744C203.621 9.85357 204.482 10.783 205.08 11.9959C205.679 13.2034 205.978 14.6492 205.978 16.3334C205.978 18.0281 205.676 19.4872 205.072 20.7106C204.469 21.9287 203.589 22.8661 202.435 23.5229C201.28 24.1743 199.877 24.5 198.224 24.5ZM195.174 22.7523H198.097C199.443 22.7523 200.557 22.4928 201.442 21.9737C202.326 21.4547 202.986 20.7159 203.42 19.7573C203.854 18.7987 204.071 17.6574 204.071 16.3334C204.071 15.0199 203.857 13.8892 203.428 12.9412C202.999 11.9879 202.358 11.257 201.505 10.7486C200.653 10.2349 199.591 9.97803 198.32 9.97803H195.174V22.7523Z" fill="#F2F2F2"/>
<path d="M51.4458 23.9648L50.1438 21.026H41.569L40.2855 23.9648H35.8586L42.9082 8.08008H48.8045L56.1703 23.9648H51.4458ZM48.6743 17.7523L45.7913 11.2794L43.0012 17.7523H48.6743Z" fill="#F2F2F2"/>
<path d="M65.1358 24.1883C62.9223 24.1883 61.0995 23.7605 59.6487 22.9049C58.3466 22.1795 57.398 21.1751 56.7656 19.873C56.2076 18.7756 55.9286 17.5666 55.9286 16.246V15.6694C55.9286 14.3859 56.2076 13.2141 56.747 12.1539C57.3794 10.8518 58.3466 9.84742 59.6115 9.12201C61.0995 8.28499 62.9781 7.85718 65.2288 7.85718H65.9542C69.1163 7.85718 71.4971 8.47099 73.0968 9.69862C73.785 10.2194 74.2686 10.796 74.5848 11.4657C74.901 12.1353 75.0498 12.8049 75.0498 13.5117V13.5489H70.5113L70.2509 13.0281C69.9533 12.4701 69.2279 12.0237 68.0747 11.7075C67.4608 11.5401 66.6424 11.4471 65.6008 11.4471C63.7966 11.4471 62.4573 11.9121 61.5831 12.8049C60.8577 13.5675 60.4857 14.5533 60.4857 15.7624V16.0414C60.4857 16.5994 60.5787 17.1388 60.7647 17.6782C60.9507 18.2176 61.2483 18.6826 61.6389 19.0918C62.5875 20.0963 63.964 20.5799 65.731 20.5799C67.3306 20.5799 68.5583 20.2265 69.4511 19.5196C69.7859 19.2406 70.0277 18.9802 70.1765 18.6826C70.2881 18.4222 70.3625 18.2362 70.3811 18.106H66.0658V15.2601H75.2172V23.9279H71.7203C71.7203 23.7419 71.7203 23.3699 71.7203 22.7933V21.1193C71.6087 21.2681 71.1437 21.8447 70.6787 22.2725C69.9905 22.9049 69.0791 23.4629 67.8887 23.8349C67.2004 24.0395 66.4002 24.1883 65.4516 24.1883H65.1358Z" fill="#F2F2F2"/>
<path d="M94.487 17.7151C95.0822 18.3847 95.3798 19.2961 95.3798 20.4308V22.0676C95.3798 22.6814 95.417 23.0906 95.4728 23.3138C95.51 23.5184 95.5658 23.6858 95.6402 23.8532V23.9648H91.1017C91.0645 23.816 91.0273 23.7044 91.0087 23.63C90.9715 23.4812 90.9529 23.2208 90.9529 22.8674V21.5654C90.9529 20.5052 90.7297 19.7425 90.2833 19.2775C89.8369 18.8125 89.0742 18.5707 87.9954 18.5707H82.2851V23.9648H77.8954V8.08008H88.5906C91.2691 8.08008 93.1477 8.56369 94.2266 9.54951C94.952 10.2191 95.324 11.1491 95.324 12.321V12.5256C95.324 13.4928 95.0264 14.3112 94.4126 14.9622C93.7987 15.6132 92.9989 16.0597 91.9759 16.3015C93.0919 16.5619 93.9476 17.0269 94.5428 17.6965L94.487 17.7151ZM82.2665 14.9622H88.386C89.2044 14.9622 89.8183 14.7948 90.2089 14.4414C90.5251 14.1624 90.6739 13.7718 90.6739 13.2696V13.2324C90.6739 12.7116 90.5251 12.321 90.2089 12.0606C89.8555 11.7444 89.2416 11.5956 88.386 11.5956H82.2665V14.9622Z" fill="#F2F2F2"/>
<path d="M107.508 7.81938C109.275 7.81938 110.781 8.04259 112.027 8.5076C113.274 8.97261 114.297 9.60502 115.059 10.4234C115.748 11.1489 116.25 11.9673 116.566 12.8787C116.882 13.7901 117.05 14.7201 117.05 15.6502V16.2826C117.05 17.2126 116.882 18.124 116.566 19.054C116.25 19.9655 115.748 20.7839 115.059 21.5279C114.278 22.3649 113.255 23.0345 112.009 23.4995C110.763 23.9645 109.256 24.2064 107.508 24.2064H106.578C104.29 24.2064 102.374 23.7785 100.811 22.9043C99.4536 22.1417 98.4863 21.1373 97.8725 19.8539C97.3145 18.7564 97.0355 17.566 97.0355 16.2826V15.6502C97.0355 14.3667 97.3145 13.1763 97.8725 12.0789C98.5049 10.7954 99.4722 9.79103 100.811 9.06561C102.355 8.22859 104.271 7.80078 106.578 7.80078H107.508V7.81938ZM112.474 15.8362C112.474 14.6457 112.12 13.6599 111.432 12.9159C110.539 11.9487 109.07 11.4651 107.043 11.4651C105.015 11.4651 103.601 11.9487 102.671 12.9159C101.965 13.6785 101.611 14.6457 101.611 15.8362V16.1338C101.611 16.6546 101.704 17.1754 101.872 17.6962C102.039 18.217 102.318 18.6634 102.709 19.054C103.639 20.0585 105.089 20.5607 107.061 20.5607C109.033 20.5607 110.539 20.0585 111.451 19.054C112.139 18.2914 112.492 17.3242 112.492 16.1338V15.8362H112.474Z" fill="#F2F2F2"/>
<path d="M126.852 24.2435C124.527 24.2435 122.704 23.9273 121.383 23.3135C120.286 22.7927 119.505 22.0673 119.04 21.1745C118.705 20.542 118.556 19.8166 118.556 18.9796V18.7378H123.336C123.374 19.3144 123.578 19.7794 123.969 20.1514C124.545 20.728 125.587 21.0257 127.057 21.0257H127.205C128.675 21.0257 129.716 20.821 130.33 20.4118C130.739 20.1328 130.944 19.7236 130.944 19.1284C130.944 18.6076 130.739 18.217 130.312 17.9752C129.791 17.6962 128.935 17.5474 127.708 17.4916L125.587 17.4358C123.15 17.3428 121.365 16.8592 120.212 15.9477C119.207 15.1665 118.724 14.1249 118.724 12.8043V12.6183C118.724 11.186 119.226 10.0886 120.212 9.32599C121.476 8.39596 123.615 7.91235 126.61 7.91235H127.336C130.46 7.91235 132.674 8.43317 133.976 9.45619C134.869 10.1816 135.315 11.2232 135.315 12.5811V12.8229H130.591C130.553 12.5997 130.479 12.3765 130.386 12.1905C130.293 12.0044 130.144 11.8184 129.921 11.6696C129.326 11.279 128.359 11.0744 127.019 11.0744H126.815C125.476 11.0744 124.545 11.2046 124.025 11.4464C123.56 11.6696 123.336 12.023 123.336 12.4881C123.336 12.9531 123.541 13.2879 123.932 13.5111C124.397 13.7901 125.234 13.9389 126.406 13.9947L128.6 14.0877C131.26 14.1807 133.139 14.6643 134.236 15.5199C135.166 16.2267 135.631 17.3056 135.631 18.7378V18.9982C135.631 20.5048 135.166 21.6767 134.218 22.5137C132.897 23.6855 130.646 24.2807 127.447 24.2807H126.833L126.852 24.2435Z" fill="#F2F2F2"/>
<path d="M27.4388 17.8619H18.4311L24.8058 24.2365C25.0235 24.4543 25.0433 24.7909 24.8454 25.0284C24.5682 25.365 24.291 25.6817 23.9743 25.9787C23.6773 26.2756 23.3606 26.5726 23.024 26.83C22.7865 27.0279 22.4499 27.0081 22.2321 26.7904L15.8575 20.4157V29.4234C15.8575 29.7401 15.6199 29.9777 15.3229 30.0173C14.9072 30.0569 14.4717 30.0767 14.0361 30.0767C13.6006 30.0767 13.1849 30.0767 12.7691 30.0173C12.4722 29.9975 12.2346 29.7401 12.2346 29.4234V20.4157L5.85993 26.7904C5.64216 27.0081 5.30561 27.0279 5.06804 26.83C4.77109 26.5924 4.49393 26.335 4.23657 26.0777C4.15738 25.9985 4.07819 25.9193 3.999 25.8401C3.74164 25.5629 3.48428 25.2858 3.24671 25.0086C3.04874 24.7711 3.06854 24.4345 3.2863 24.2167L9.66097 17.8421H0.653289C0.336536 17.8421 0.0989703 17.6045 0.0593761 17.3076C0.0197818 16.8918 -1.52588e-05 16.4563 -1.52588e-05 16.0207C-1.52588e-05 15.5852 -1.52588e-05 15.1695 0.0593761 14.7339C0.0791732 14.437 0.336536 14.1994 0.653289 14.1994H9.66097L3.2863 7.86434C3.06854 7.64657 3.04874 7.31002 3.24671 7.07245C3.52387 6.7359 3.80103 6.43895 4.09799 6.12219C4.39494 5.80544 4.7117 5.52828 5.04825 5.25112C5.28581 5.05315 5.62236 5.07295 5.84013 5.29071L12.2148 11.6654V2.6577C12.2148 2.34095 12.4524 2.10338 12.7493 2.06379C13.1651 2.02419 13.6006 2.00439 14.0163 2.00439C14.4321 2.00439 14.8676 2.00439 15.3031 2.06379C15.6001 2.08358 15.8377 2.34095 15.8377 2.6577V11.6654L22.2123 5.29071C22.4301 5.07295 22.7667 5.05315 23.0042 5.25112C23.3408 5.52828 23.6377 5.80544 23.9545 6.12219C24.2514 6.41915 24.5484 6.7359 24.8256 7.07245C25.0235 7.31002 25.0037 7.64657 24.786 7.86434L18.4113 14.239H27.419C27.7357 14.239 27.9733 14.4766 28.0129 14.7735C28.0525 15.1893 28.0723 15.6248 28.0723 16.0603C28.0723 16.4959 28.0723 16.9116 28.0129 17.3472C27.9931 17.6441 27.7357 17.8817 27.419 17.8817L27.4388 17.8619Z" fill="#FF6B3F"/>
</svg>
