<svg width="30" height="30" viewBox="0 0 30 30" fill="none" xmlns="http://www.w3.org/2000/svg">
<path d="M3.77 23.498L7.57145 16.7615C7.78283 16.3869 8.25575 16.2513 8.63347 16.4571L13.8849 19.3173C14.2633 19.5234 14.4056 19.9955 14.2042 20.3764L10.4827 27.4155C10.1624 28.0214 9.27452 27.9569 9.0451 27.3111L8.1646 24.8326C8.04078 24.484 7.69098 24.2687 7.32402 24.3151L4.55438 24.6658C3.91225 24.747 3.45191 24.0617 3.77 23.498Z" fill="#FF6B3F"/>
<path d="M25.3648 23.4982L21.5633 16.7617C21.3519 16.3871 20.879 16.2516 20.5013 16.4573L15.2499 19.3175C14.8715 19.5236 14.7291 19.9957 14.9305 20.3767L18.6521 27.4158C18.9724 28.0216 19.8602 27.9572 20.0897 27.3114L20.9702 24.8328C21.094 24.4843 21.4438 24.2689 21.8107 24.3154L24.5804 24.666C25.2225 24.7473 25.6829 24.0619 25.3648 23.4982Z" fill="#FF6B3F"/>
<mask id="mask0_294_1927" style="mask-type:alpha" maskUnits="userSpaceOnUse" x="5" y="2" width="19" height="19">
<circle cx="14.5672" cy="11.4031" r="9.40309" fill="#D9D9D9"/>
</mask>
<g mask="url(#mask0_294_1927)">
<circle cx="13.2426" cy="5.99358" r="22.9262" fill="#D15A37"/>
<circle cx="18.6289" cy="2.00401" r="15.3519" transform="rotate(-105 18.6289 2.00401)" fill="url(#paint0_linear_294_1927)"/>
<g opacity="0.6" filter="url(#filter0_d_294_1927)">
<circle cx="20.7602" cy="4.99238" r="9.92451" fill="#FFD3C5"/>
</g>
</g>
<g filter="url(#filter1_d_294_1927)">
<path d="M11.7175 8.55169V10.2151L10.5293 11.4033L11.7175 12.5915V14.2549H13.3809L14.5691 15.4431L15.7572 14.2549H17.4207V12.5915L18.6088 11.4033L17.4207 10.2151V8.55169H15.7572L14.5691 7.36353L13.3809 8.55169H11.7175Z" fill="#D15A37"/>
</g>
<defs>
<filter id="filter0_d_294_1927" x="9.87223" y="-5.46738" width="21.776" height="21.776" filterUnits="userSpaceOnUse" color-interpolation-filters="sRGB">
<feFlood flood-opacity="0" result="BackgroundImageFix"/>
<feColorMatrix in="SourceAlpha" type="matrix" values="0 0 0 0 0 0 0 0 0 0 0 0 0 0 0 0 0 0 127 0" result="hardAlpha"/>
<feMorphology radius="0.321154" operator="dilate" in="SourceAlpha" result="effect1_dropShadow_294_1927"/>
<feOffset dy="0.428205"/>
<feGaussianBlur stdDeviation="0.321154"/>
<feComposite in2="hardAlpha" operator="out"/>
<feColorMatrix type="matrix" values="0 0 0 0 0 0 0 0 0 0 0 0 0 0 0 0 0 0 0.1 0"/>
<feBlend mode="normal" in2="BackgroundImageFix" result="effect1_dropShadow_294_1927"/>
<feBlend mode="normal" in="SourceGraphic" in2="effect1_dropShadow_294_1927" result="shape"/>
</filter>
<filter id="filter1_d_294_1927" x="10.2705" y="7.10478" width="8.59709" height="8.59709" filterUnits="userSpaceOnUse" color-interpolation-filters="sRGB">
<feFlood flood-opacity="0" result="BackgroundImageFix"/>
<feColorMatrix in="SourceAlpha" type="matrix" values="0 0 0 0 0 0 0 0 0 0 0 0 0 0 0 0 0 0 127 0" result="hardAlpha"/>
<feOffset/>
<feGaussianBlur stdDeviation="0.129375"/>
<feComposite in2="hardAlpha" operator="out"/>
<feColorMatrix type="matrix" values="0 0 0 0 0 0 0 0 0 0 0 0 0 0 0 0 0 0 0.2 0"/>
<feBlend mode="normal" in2="BackgroundImageFix" result="effect1_dropShadow_294_1927"/>
<feBlend mode="normal" in="SourceGraphic" in2="effect1_dropShadow_294_1927" result="shape"/>
</filter>
<linearGradient id="paint0_linear_294_1927" x1="6.92584" y1="13.7052" x2="29.1663" y2="-7.01885" gradientUnits="userSpaceOnUse">
<stop stop-color="#FF6B3F"/>
<stop offset="1" stop-color="#FE9272"/>
</linearGradient>
</defs>
</svg>
