<svg width="208" height="34" viewBox="0 0 208 34" fill="none" xmlns="http://www.w3.org/2000/svg">
<path d="M27.4388 18.8213H18.4311L24.8058 25.196C25.0235 25.4138 25.0433 25.7503 24.8454 25.9879C24.5682 26.3245 24.291 26.6412 23.9743 26.9382C23.6773 27.2351 23.3606 27.5321 23.024 27.7894C22.7865 27.9874 22.4499 27.9676 22.2321 27.7498L15.8575 21.3752V30.3829C15.8575 30.6996 15.6199 30.9372 15.323 30.9768C14.9072 31.0164 14.4717 31.0362 14.0361 31.0362C13.6006 31.0362 13.1849 31.0362 12.7691 30.9768C12.4722 30.957 12.2346 30.6996 12.2346 30.3829V21.3752L5.85994 27.7498C5.64217 27.9676 5.30562 27.9874 5.06806 27.7894C4.7711 27.5519 4.49394 27.2945 4.23658 27.0371C4.15739 26.958 4.0782 26.8788 3.99902 26.7996C3.74165 26.5224 3.48429 26.2453 3.24673 25.9681C3.04875 25.7305 3.06855 25.394 3.28632 25.1762L9.66099 18.8016H0.653304C0.336551 18.8016 0.0989855 18.564 0.0593913 18.267C0.0197971 17.8513 0 17.4158 0 16.9802C0 16.5447 0 16.1289 0.0593913 15.6934C0.0791884 15.3964 0.336551 15.1589 0.653304 15.1589H9.66099L3.28632 8.82381C3.06855 8.60604 3.04875 8.26949 3.24673 8.03193C3.52388 7.69538 3.80104 7.39842 4.098 7.08166C4.39496 6.76491 4.71171 6.48775 5.04826 6.21059C5.28583 6.01262 5.62238 6.03242 5.84015 6.25019L12.2148 12.6249V3.61717C12.2148 3.30042 12.4524 3.06285 12.7493 3.02326C13.1651 2.98366 13.6006 2.96387 14.0163 2.96387C14.4321 2.96387 14.8676 2.96387 15.3032 3.02326C15.6001 3.04306 15.8377 3.30042 15.8377 3.61717V12.6249L22.2124 6.25019C22.4301 6.03242 22.7667 6.01262 23.0042 6.21059C23.3408 6.48775 23.6377 6.76491 23.9545 7.08166C24.2515 7.37862 24.5484 7.69538 24.8256 8.03193C25.0235 8.26949 25.0037 8.60604 24.786 8.82381L18.4113 15.1985H27.419C27.7357 15.1985 27.9733 15.436 28.0129 15.733C28.0525 16.1487 28.0723 16.5843 28.0723 17.0198C28.0723 17.4553 28.0723 17.8711 28.0129 18.3066C27.9931 18.6036 27.7357 18.8411 27.419 18.8411L27.4388 18.8213Z" fill="#FF6B3F"/>
<path d="M51.6594 24.9239L50.3574 21.9851H41.7826L40.4992 24.9239H36.0723L43.1218 9.03918H49.0182L56.3839 24.9239H51.6594ZM48.888 18.7114L46.0049 12.2385L43.2148 18.7114H48.888Z" fill="white"/>
<path d="M65.3495 25.1475C63.136 25.1475 61.3132 24.7196 59.8624 23.864C58.5603 23.1386 57.6117 22.1342 56.9793 20.8322C56.4213 19.7347 56.1423 18.5257 56.1423 17.2051V16.6285C56.1423 15.345 56.4213 14.1732 56.9607 13.113C57.5931 11.811 58.5603 10.8065 59.8252 10.0811C61.3132 9.24409 63.1918 8.81628 65.4425 8.81628H66.1679C69.33 8.81628 71.7108 9.4301 73.3105 10.6577C73.9987 11.1785 74.4823 11.7552 74.7985 12.4248C75.1147 13.0944 75.2635 13.764 75.2635 14.4708V14.508H70.725L70.4646 13.9872C70.167 13.4292 69.4416 12.9828 68.2883 12.6666C67.6745 12.4992 66.8561 12.4062 65.8145 12.4062C64.0103 12.4062 62.671 12.8712 61.7968 13.764C61.0714 14.5266 60.6994 15.5124 60.6994 16.7215V17.0005C60.6994 17.5585 60.7924 18.0979 60.9784 18.6373C61.1644 19.1767 61.462 19.6417 61.8526 20.0509C62.8012 21.0554 64.1777 21.539 65.9447 21.539C67.5443 21.539 68.772 21.1856 69.6648 20.4787C69.9996 20.1997 70.2414 19.9393 70.3902 19.6417C70.5018 19.3813 70.5762 19.1953 70.5948 19.0651H66.2795V16.2193H75.4309V24.887H71.934C71.934 24.701 71.934 24.329 71.934 23.7524V22.0784C71.8224 22.2272 71.3574 22.8038 70.8924 23.2316C70.2042 23.864 69.2928 24.422 68.1023 24.794C67.4141 24.9987 66.6139 25.1475 65.6653 25.1475H65.3495Z" fill="white"/>
<path d="M94.7007 18.6742C95.2959 19.3438 95.5935 20.2552 95.5935 21.3899V23.0267C95.5935 23.6405 95.6307 24.0497 95.6865 24.2729C95.7237 24.4775 95.7795 24.6449 95.8539 24.8123V24.9239H91.3154C91.2782 24.7751 91.241 24.6635 91.2224 24.5891C91.1852 24.4403 91.1666 24.1799 91.1666 23.8265V22.5245C91.1666 21.4643 90.9434 20.7016 90.497 20.2366C90.0505 19.7716 89.2879 19.5298 88.2091 19.5298H82.4988V24.9239H78.1091V9.03918H88.8043C91.4828 9.03918 93.3614 9.5228 94.4402 10.5086C95.1657 11.1782 95.5377 12.1083 95.5377 13.2801V13.4847C95.5377 14.4519 95.2401 15.2703 94.6262 15.9213C94.0124 16.5724 93.2126 17.0188 92.1896 17.2606C93.3056 17.521 94.1612 17.986 94.7564 18.6556L94.7007 18.6742ZM82.4802 15.9213H88.5997C89.4181 15.9213 90.0319 15.7539 90.4226 15.4005C90.7388 15.1215 90.8876 14.7309 90.8876 14.2287V14.1915C90.8876 13.6707 90.7388 13.2801 90.4226 13.0197C90.0691 12.7035 89.4553 12.5547 88.5997 12.5547H82.4802V15.9213Z" fill="white"/>
<path d="M107.721 8.77873C109.488 8.77873 110.995 9.00194 112.241 9.46695C113.487 9.93196 114.51 10.5644 115.273 11.3828C115.961 12.1082 116.463 12.9266 116.78 13.838C117.096 14.7495 117.263 15.6795 117.263 16.6095V17.2419C117.263 18.1719 117.096 19.0834 116.78 20.0134C116.463 20.9248 115.961 21.7432 115.273 22.4872C114.492 23.3243 113.469 23.9939 112.222 24.4589C110.976 24.9239 109.47 25.1657 107.721 25.1657H106.791C104.503 25.1657 102.587 24.7379 101.025 23.8637C99.6672 23.1011 98.7 22.0966 98.0862 20.8132C97.5282 19.7158 97.2491 18.5254 97.2491 17.2419V16.6095C97.2491 15.3261 97.5282 14.1357 98.0862 13.0382C98.7186 11.7548 99.6858 10.7504 101.025 10.025C102.569 9.18794 104.485 8.76013 106.791 8.76013H107.721V8.77873ZM112.687 16.7955C112.687 15.6051 112.334 14.6193 111.646 13.8752C110.753 12.908 109.284 12.4244 107.256 12.4244C105.229 12.4244 103.815 12.908 102.885 13.8752C102.178 14.6379 101.825 15.6051 101.825 16.7955V17.0931C101.825 17.6139 101.918 18.1347 102.085 18.6556C102.253 19.1764 102.532 19.6228 102.922 20.0134C103.852 21.0178 105.303 21.52 107.275 21.52C109.246 21.52 110.753 21.0178 111.664 20.0134C112.353 19.2508 112.706 18.2835 112.706 17.0931V16.7955H112.687Z" fill="white"/>
<path d="M127.066 25.2028C124.741 25.2028 122.918 24.8865 121.597 24.2727C120.5 23.7519 119.718 23.0265 119.253 22.1337C118.919 21.5013 118.77 20.7759 118.77 19.9388V19.697H123.55C123.587 20.2736 123.792 20.7387 124.183 21.1107C124.759 21.6873 125.801 21.9849 127.27 21.9849H127.419C128.888 21.9849 129.93 21.7803 130.544 21.3711C130.953 21.0921 131.158 20.6829 131.158 20.0876C131.158 19.5668 130.953 19.1762 130.525 18.9344C130.004 18.6554 129.149 18.5066 127.921 18.4508L125.801 18.395C123.364 18.302 121.578 17.8184 120.425 16.907C119.421 16.1257 118.937 15.0841 118.937 13.7635V13.5775C118.937 12.1453 119.439 11.0478 120.425 10.2852C121.69 9.35519 123.829 8.87158 126.824 8.87158H127.549C130.674 8.87158 132.888 9.39239 134.19 10.4154C135.082 11.1408 135.529 12.1825 135.529 13.5403V13.7821H130.804C130.767 13.5589 130.693 13.3357 130.6 13.1497C130.507 12.9637 130.358 12.7777 130.135 12.6289C129.539 12.2383 128.572 12.0337 127.233 12.0337H127.028C125.689 12.0337 124.759 12.1639 124.238 12.4057C123.773 12.6289 123.55 12.9823 123.55 13.4473C123.55 13.9123 123.755 14.2471 124.145 14.4703C124.61 14.7493 125.447 14.8981 126.619 14.9539L128.814 15.0469C131.474 15.1399 133.353 15.6235 134.45 16.4792C135.38 17.186 135.845 18.2648 135.845 19.697V19.9574C135.845 21.4641 135.38 22.6359 134.431 23.4729C133.111 24.6447 130.86 25.24 127.661 25.24H127.047L127.066 25.2028Z" fill="white"/>
<path d="M145.815 25.5V9.23031H155.571V10.978H147.785V16.4754H154.84V18.2231H147.785V25.5H145.815ZM172.672 17.3652C172.672 19.0811 172.363 20.564 171.743 21.8139C171.123 23.0638 170.273 24.0277 169.193 24.7056C168.112 25.3835 166.878 25.7224 165.491 25.7224C164.103 25.7224 162.869 25.3835 161.789 24.7056C160.708 24.0277 159.858 23.0638 159.239 21.8139C158.619 20.564 158.309 19.0811 158.309 17.3652C158.309 15.6492 158.619 14.1663 159.239 12.9164C159.858 11.6665 160.708 10.7026 161.789 10.0247C162.869 9.34682 164.103 9.00787 165.491 9.00787C166.878 9.00787 168.112 9.34682 169.193 10.0247C170.273 10.7026 171.123 11.6665 171.743 12.9164C172.363 14.1663 172.672 15.6492 172.672 17.3652ZM170.766 17.3652C170.766 15.9564 170.53 14.7674 170.059 13.7982C169.593 12.829 168.96 12.0955 168.16 11.5977C167.366 11.0998 166.476 10.8509 165.491 10.8509C164.506 10.8509 163.613 11.0998 162.814 11.5977C162.019 12.0955 161.386 12.829 160.915 13.7982C160.449 14.7674 160.216 15.9564 160.216 17.3652C160.216 18.7739 160.449 19.9629 160.915 20.9321C161.386 21.9013 162.019 22.6348 162.814 23.1326C163.613 23.6305 164.506 23.8794 165.491 23.8794C166.476 23.8794 167.366 23.6305 168.16 23.1326C168.96 22.6348 169.593 21.9013 170.059 20.9321C170.53 19.9629 170.766 18.7739 170.766 17.3652ZM189.713 17.3652C189.713 19.0811 189.403 20.564 188.783 21.8139C188.164 23.0638 187.314 24.0277 186.233 24.7056C185.153 25.3835 183.919 25.7224 182.531 25.7224C181.144 25.7224 179.91 25.3835 178.829 24.7056C177.749 24.0277 176.899 23.0638 176.279 21.8139C175.659 20.564 175.35 19.0811 175.35 17.3652C175.35 15.6492 175.659 14.1663 176.279 12.9164C176.899 11.6665 177.749 10.7026 178.829 10.0247C179.91 9.34682 181.144 9.00787 182.531 9.00787C183.919 9.00787 185.153 9.34682 186.233 10.0247C187.314 10.7026 188.164 11.6665 188.783 12.9164C189.403 14.1663 189.713 15.6492 189.713 17.3652ZM187.806 17.3652C187.806 15.9564 187.57 14.7674 187.099 13.7982C186.633 12.829 186 12.0955 185.2 11.5977C184.406 11.0998 183.516 10.8509 182.531 10.8509C181.546 10.8509 180.654 11.0998 179.854 11.5977C179.06 12.0955 178.427 12.829 177.955 13.7982C177.489 14.7674 177.256 15.9564 177.256 17.3652C177.256 18.7739 177.489 19.9629 177.955 20.9321C178.427 21.9013 179.06 22.6348 179.854 23.1326C180.654 23.6305 181.546 23.8794 182.531 23.8794C183.516 23.8794 184.406 23.6305 185.2 23.1326C186 22.6348 186.633 21.9013 187.099 20.9321C187.57 19.9629 187.806 18.7739 187.806 17.3652ZM198.046 25.5H193.025V9.23031H198.269C199.847 9.23031 201.197 9.55602 202.32 10.2074C203.443 10.8536 204.304 11.783 204.902 12.9959C205.5 14.2034 205.8 15.6492 205.8 17.3334C205.8 19.0281 205.498 20.4872 204.894 21.7106C204.29 22.9287 203.411 23.8661 202.257 24.5229C201.102 25.1743 199.699 25.5 198.046 25.5ZM194.996 23.7523H197.919C199.264 23.7523 200.379 23.4928 201.264 22.9737C202.148 22.4547 202.807 21.7159 203.242 20.7573C203.676 19.7987 203.893 18.6574 203.893 17.3334C203.893 16.0199 203.679 14.8892 203.25 13.9412C202.821 12.9879 202.18 12.257 201.327 11.7486C200.474 11.2349 199.413 10.978 198.141 10.978H194.996V23.7523Z" fill="white"/>
</svg>
