<svg width="140" height="120" viewBox="0 0 140 120" fill="none" xmlns="http://www.w3.org/2000/svg">
<path fill-rule="evenodd" clip-rule="evenodd" d="M3 75H137V45H3V75ZM13.4529 55.1696L14.1978 54.5775C14.9873 53.95 16.4417 53.4058 17.3293 53.4058C18.2052 53.4058 19.4046 53.8407 19.9936 54.372C21.2478 55.503 21.4688 56.7672 21.4082 62.4638L21.3651 66.5217L17.4132 66.6022L17.3429 62.359C17.2677 57.8093 17.202 57.4032 16.4777 57.0162C15.988 56.7546 14.8964 56.8168 14.1425 57.1493L13.4529 57.4535V66.5942H9.38787V48.913H13.4529V55.1696ZM128.434 53.8406H132.209V56.5855L128.507 56.6667L128.468 59.682C128.424 63.037 128.521 63.5161 129.307 63.8412C129.711 64.0084 130.736 63.9755 131.737 63.7629L132.209 63.6628V66.581L131.665 66.6946C131.365 66.7572 130.238 66.809 129.16 66.81C127.285 66.8116 127.166 66.7938 126.414 66.3988C125.503 65.9209 125.199 65.611 124.76 64.7101C124.463 64.0999 124.439 63.8181 124.395 60.3261L124.348 56.5942H122.918V53.8406H124.369V50.2174H128.434V53.8406ZM47.4247 53.8072C48.7223 54.3777 49.6181 55.6454 50.1282 57.6335C50.498 59.0739 50.3442 61.8542 49.8193 63.2222C49.3084 64.5533 48.2405 65.7671 47.0438 66.3764C46.2708 66.77 46.0612 66.8104 44.8115 66.807C43.5937 66.8036 43.3427 66.7565 42.667 66.4049C42.1052 66.1123 41.8837 66.0558 41.8336 66.1917C41.796 66.2935 41.7482 67.4855 41.7276 68.8406L41.6901 71.3043L37.8429 71.3852V53.8406H41.7627V54.3236C41.7627 54.5894 41.8016 54.8457 41.8493 54.8932C41.8969 54.9406 42.2398 54.7619 42.6114 54.4958C44.1114 53.422 45.9503 53.159 47.4247 53.8072ZM60.5991 53.7246C62.02 54.1368 63.1403 55.1113 63.7675 56.4809C64.1388 57.2914 64.1907 57.5859 64.2399 59.1667L64.2953 60.942H60.0062C57.2405 60.942 55.6845 60.9946 55.6253 61.0901C55.4569 61.3622 55.9908 62.6249 56.4653 63.0768C57.0908 63.6723 58.0955 63.9855 59.3806 63.9855C60.649 63.9855 61.6975 63.6977 62.9331 63.0101C63.5213 62.683 63.9013 62.5496 63.9909 62.639C64.0686 62.7165 64.1121 63.4741 64.0892 64.3459L64.0477 65.9135L63.467 66.1062C63.1476 66.2122 62.7774 66.3625 62.6444 66.4401C62.1137 66.7501 60.3987 66.9177 58.4054 66.8543C56.5649 66.7959 56.2667 66.7493 55.5141 66.4019C55.0527 66.1888 54.628 66.0139 54.5704 66.013C54.3264 66.0099 53.1312 64.9303 52.6977 64.3216C51.1109 62.0936 51.2149 58.0345 52.9159 55.7961C54.4769 53.742 57.6807 52.8783 60.5991 53.7246ZM85.5741 53.6938C86.3631 53.9672 86.9367 54.4309 87.521 55.2674L87.7586 55.6074L88.7076 54.8259C89.7294 53.9846 91.0895 53.4017 92.0254 53.4043C92.8879 53.4067 94.0905 53.9325 94.6515 54.5525C94.9276 54.8574 95.292 55.4767 95.4613 55.9286C95.7528 56.7064 95.7692 57.0114 95.7692 61.6722V66.5942H91.8837L91.8162 62.3551C91.7746 59.7414 91.6871 57.9661 91.5878 57.7249C91.237 56.873 89.9846 56.5983 88.8602 57.1267L88.2925 57.3933L88.1473 66.5217L84.1747 66.6023L84.1218 62.3591C84.0848 59.3775 84.0142 57.98 83.8847 57.6586C83.5548 56.8394 82.4373 56.6291 81.2151 57.1561L80.5255 57.4535V66.5942H76.4605V53.8406H80.5255V55.1543L81.3032 54.5681C82.1774 53.9093 83.375 53.4322 84.1949 53.4164C84.4962 53.4106 85.1169 53.5354 85.5741 53.6938ZM106.137 53.6977C107.926 54.0925 108.689 54.6181 109.393 55.942L109.779 56.6667L109.869 66.5942H105.787V66.0145C105.787 65.4045 105.651 65.2913 105.352 65.6513C105.253 65.7703 104.804 66.0783 104.354 66.3355C103.619 66.7559 103.394 66.809 102.128 66.8601C100.9 66.9099 100.636 66.8762 100.056 66.5961C98.5825 65.8841 97.8055 64.587 97.8032 62.8357C97.8001 60.4923 99.2966 59.0217 102.085 58.6287C102.723 58.5387 103.6 58.4028 104.032 58.3267C104.465 58.2506 105.037 58.1884 105.303 58.1884C105.74 58.1884 105.787 58.1478 105.787 57.7687C105.787 57.1096 104.988 56.4972 103.961 56.3691C102.764 56.2199 101.258 56.3996 100.238 56.8132C98.7917 57.3999 98.818 57.4214 98.818 55.6477C98.818 54.501 98.8666 54.1028 99.0137 54.0464C99.1214 54.0051 99.889 53.8497 100.72 53.7009C102.725 53.3416 104.519 53.3406 106.137 53.6977ZM27.8337 56.3043C28.2806 57.6196 28.6853 58.7935 28.7331 58.913C28.7808 59.0326 28.9718 59.6157 29.1574 60.2086C29.3433 60.8016 29.5605 61.3068 29.6403 61.3314C29.7202 61.3559 29.9728 60.773 30.2016 60.0359C30.8507 57.9454 31.7511 55.1348 31.9889 54.4565L32.2049 53.8406H34.2423C36.1172 53.8406 36.2732 53.8609 36.1979 54.0942C36.1529 54.2336 35.9248 54.8696 35.6912 55.5072C35.4576 56.1449 35.0993 57.1232 34.895 57.6812C34.6906 58.2391 34.3143 59.25 34.0588 59.9275C33.2246 62.139 32.7332 63.4617 32.3894 64.4203C31.8729 65.8606 31.4306 67.0528 30.5751 69.3116L29.7927 71.3768H27.7203C26.0133 71.3768 25.6479 71.34 25.6479 71.1681C25.6479 71.0533 26.0127 70.0261 26.4586 68.8855C26.9046 67.7448 27.3031 66.7016 27.3442 66.5672C27.4369 66.2648 26.8696 64.6335 25.0351 59.9275C24.8021 59.3297 24.511 58.5471 24.3882 58.1884C24.2655 57.8297 24.0138 57.1449 23.8288 56.6667C23.6438 56.1884 23.3265 55.3552 23.1235 54.8149L22.7545 53.8329L27.0214 53.913L27.8337 56.3043ZM70.3629 54.6497C70.3629 55.0948 70.4119 55.4372 70.4718 55.4106C70.5318 55.3841 71.0563 55.0416 71.6378 54.6497C72.6423 53.9725 72.7524 53.9338 73.8562 53.87L75.0177 53.8028L74.9361 57.518L73.4117 57.5329C72.503 57.5419 71.5942 57.6372 71.1614 57.769L70.4355 57.9899L70.3586 66.6023L66.3705 66.5217L66.2949 53.8406H70.3629V54.6497ZM116.82 54.6377C116.82 55.0761 116.852 55.4348 116.891 55.4348C116.931 55.4348 117.274 55.1968 117.654 54.9059C118.69 54.1125 119.379 53.8474 120.413 53.8438L121.321 53.8406V57.5683L119.978 57.5088C118.925 57.4622 118.447 57.5099 117.764 57.73L116.893 58.0106L116.748 66.5217L112.755 66.6023V53.8406H116.82V54.6377ZM56.9201 56.2904C56.2369 56.6001 55.6793 57.3872 55.6481 58.0857L55.6273 58.5507H60.273L60.2389 57.988C60.1412 56.38 58.5348 55.5583 56.9201 56.2904ZM42.4831 56.9203L41.8353 57.2464L41.796 60.362C41.7502 63.9983 41.6839 63.8406 43.2588 63.8406C44.575 63.8406 45.2158 63.4946 45.7791 62.4801C46.1641 61.7868 46.1907 61.6317 46.1907 60.0725C46.1907 58.6129 46.1493 58.3286 45.8582 57.7842C45.6753 57.4423 45.316 57.0349 45.0597 56.879C44.4128 56.4852 43.3124 56.5029 42.4831 56.9203ZM104.407 60.7446C103.199 60.9896 102.406 61.3171 102.149 61.6783C101.755 62.2306 101.776 63.1403 102.193 63.6196C102.799 64.3139 104.477 64.2683 105.415 63.5319C105.764 63.2574 105.787 63.1619 105.787 61.9459V60.6522L105.242 60.669C104.943 60.6783 104.567 60.7123 104.407 60.7446Z" fill="white"/>
</svg>
