<svg width="140" height="120" viewBox="0 0 140 120" fill="none" xmlns="http://www.w3.org/2000/svg">
<path fill-rule="evenodd" clip-rule="evenodd" d="M44.3091 30.1004C37.8924 30.8631 35.1081 31.6292 30.4875 33.9036C24.3109 36.944 19.188 41.4004 15.3454 47.0757C12.403 51.4214 10.6955 56.5265 11.0451 59.9329C11.5565 64.9182 13.7537 68.2674 17.8048 70.2356C20.1388 71.3698 20.1726 71.5028 18.6447 73.5454C14.5835 78.9751 13.9138 84.144 16.8494 87.4051C18.239 88.9488 19.8232 89.3379 22.201 88.7193C24.7194 88.0642 27.7213 86.056 30.2102 83.3618C31.6768 81.7741 31.756 81.7196 32.3475 81.8952C36.6034 83.1584 45.4429 83.628 52.412 82.9613C64.7501 81.7809 78.9637 78.2375 92.2871 73.0207C95.465 71.7764 99.3351 70.1616 100.43 69.623C100.748 69.4665 101.085 69.3387 101.18 69.3387C101.274 69.3387 101.847 69.7419 102.452 70.235C106.818 73.7864 111.46 73.0588 117.13 67.9349C119.003 66.2423 122.862 62.1598 123.116 61.6029C123.276 61.2494 122.017 54.7201 121.661 54.0617C121.557 53.8701 120.999 54.2274 119.641 55.3541C117.308 57.2902 116.551 57.8563 115.729 58.279C114.888 58.7116 114.898 58.4585 115.779 57.0092C116.355 56.0624 116.596 55.8395 117.159 55.7341C118.562 55.4713 120.691 54.2005 122.152 52.7538C123.947 50.9766 124.826 49.6685 126.591 46.1486L128 43.3401L127.264 43.2186C126.86 43.1518 126.193 43.0961 125.782 43.0949C125.064 43.0927 125.036 43.0669 125.036 42.4043C125.036 40.4486 123.373 38.1622 121.552 37.6151C119.242 36.9205 116.372 37.7047 114.093 39.6537L113.309 40.3234L112.254 39.7288C109.615 38.2414 105.729 37.0442 101.445 36.3982C98.1547 35.9023 88.9274 35.9029 84.2244 36.3994C77.4762 37.1118 71.863 38.0294 66.8633 39.2373L63.9355 39.9446L63.3126 39.2361C62.9702 38.8464 62.097 38.2362 61.3726 37.8801C60.2183 37.3124 59.8566 37.2319 58.4495 37.2297C57.0366 37.2275 56.6856 37.3049 55.5252 37.8753C53.4661 38.8872 52.0011 40.8507 51.6137 43.1174C51.4744 43.9328 51.4216 43.9847 50.2902 44.4223C48.6224 45.0675 47.9178 45.1725 47.6246 44.8198C47.4243 44.5786 47.53 44.4149 48.2346 43.8759C49.5682 42.8561 50.955 41.4855 51.6428 40.5079C52.2227 39.6837 52.2721 39.4879 52.2711 38.0225C52.2697 36.4843 52.2338 36.3628 51.1827 34.3441C49.1778 30.4934 47.8579 29.6784 44.3091 30.1004ZM47.2929 30.9873C48.4159 31.2987 49.2098 32.2414 50.4756 34.7668C51.7453 37.3001 51.8837 38.3295 51.1481 39.7702C50.6486 40.7483 48.875 42.5119 47.3041 43.5926C46.6971 44.0101 46.2004 44.4082 46.2004 44.4772C46.2004 44.5462 46.5543 44.9478 46.9869 45.3697L47.7735 46.1368L50.0229 45.3443L52.2723 44.5519L52.3913 43.4743C52.7463 40.2639 55.7669 37.7131 58.8817 37.9938C60.4524 38.1354 61.8442 38.8339 62.8664 39.9939L63.6568 40.8906L65.818 40.3069C72.8719 38.401 83.2613 36.9891 91.6994 36.7895C100.48 36.5819 106.71 37.6803 111.623 40.3021L113.448 41.276L114.115 40.6685C116.834 38.1941 120.291 37.4301 122.32 38.8548C123.471 39.6626 124.239 41.2088 124.239 42.7177V43.888H125.434C126.113 43.888 126.628 43.9755 126.628 44.0908C126.628 44.4666 124.615 48.3421 123.74 49.6498C121.945 52.3345 119.285 54.4121 116.864 55.0207C116.051 55.2253 115.874 55.3822 115.114 56.577C114.461 57.6035 114.282 58.064 114.327 58.6017C114.444 60.006 115.705 59.5446 118.968 56.9031C120.111 55.9783 121.078 55.2215 121.118 55.2215C121.157 55.2215 121.299 55.7361 121.432 56.3648C121.565 56.9935 121.859 58.3353 122.085 59.3463L122.496 61.1847L121.943 61.9095C120.778 63.4351 115.709 68.2984 114.239 69.3013C109.562 72.4926 105.887 72.4584 102.508 69.1919L101.58 68.295L97.5768 70.0089C86.5755 74.7191 76.3922 77.9297 65.0756 80.256C56.655 81.987 50.8371 82.5653 43.4188 82.4088C38.5287 82.3056 35.8682 81.9988 32.6579 81.1679L31.5052 80.8696L29.0482 83.3059C26.3586 85.9729 24.6744 87.1173 22.4117 87.8152C19.3791 88.7508 17.5641 87.9594 16.3248 85.161C15.0547 82.2934 16.2006 78.0991 19.4217 73.8244C20.4603 72.4462 20.5373 72.2701 20.4808 71.4042C20.4227 70.5154 20.3823 70.4573 19.6437 70.2028C16.77 69.213 14.3167 67.1032 13.0904 64.5667C12.1768 62.6772 11.6714 60.1985 11.8155 58.3148C12.2314 52.8761 15.8295 46.4689 21.5409 40.9974C23.5062 39.1145 24.7088 38.2038 27.5282 36.4632C32.4321 33.4358 37.0234 31.7481 41.9202 31.1733C42.9056 31.0575 43.9359 30.9305 44.2096 30.8909C45.2741 30.7374 46.5334 30.7768 47.2929 30.9873ZM42.617 34.0738C36.7408 35.0233 32.7755 36.531 28.0695 39.6054C21.1919 44.0986 16.159 50.8597 15.0999 57.0289C14.3765 61.2422 17.1697 65.9935 20.7609 66.6586C21.8554 66.8612 23.5647 66.247 25.067 65.1115C26.109 64.3237 31.7084 59.5965 32.0658 59.2028C32.5386 58.6818 34.8837 56.7768 34.9592 56.8522C35.2297 57.1224 33.5503 60.6471 31.6151 63.8708C29.4829 67.4223 27.6675 69.7801 24.8028 72.7188C20.7707 76.8552 19.2173 79.2092 18.9977 81.5166C18.9182 82.3511 18.9911 82.741 19.3604 83.4558C19.7745 84.2575 19.9033 84.3571 20.6003 84.4142C23.081 84.6168 28.2363 79.7736 32.9971 72.7676C34.7026 70.2577 34.8495 70.1284 41.2234 65.5346C44.4945 63.177 46.3967 61.9566 46.6025 62.0839C46.6798 62.1314 46.8589 62.5978 47.0007 63.12C47.7259 65.7925 49.4117 67.5313 51.2904 67.5448C53.0931 67.5577 55.6978 66.0933 58.1379 63.695C59.3181 62.5354 59.5488 62.3835 59.6489 62.7008C60.0427 63.9489 60.9577 65.5543 61.7649 66.4136C62.6542 67.3605 62.7352 67.4013 63.5228 67.2957C64.0906 67.2197 64.7013 66.9085 65.4772 66.3003C66.0981 65.8138 67.681 64.6003 68.9949 63.6037L71.3838 61.792L71.5009 63.925C71.5652 65.0982 71.7318 66.2941 71.8712 66.5829C72.8363 68.5821 76.3054 67.6029 80.0935 64.2619L82.0345 62.5497V63.664C82.0345 66.3013 83.482 67.4104 85.5214 66.3359C86.6458 65.7434 87.157 65.2224 89.7082 62.0689C91.9626 59.2825 93.9542 57.2099 94.3772 57.2099C94.6191 57.2099 94.6257 57.1961 93.6199 58.7761C91.8197 61.6039 91.1521 64.0414 91.6809 65.8573C92.2246 67.7255 93.2337 68.1196 95.4891 67.3446C97.3013 66.7218 99.1824 65.5036 101.095 63.7143C104.559 60.4719 105.152 59.9516 105.258 60.0579C105.318 60.1174 105.172 60.7292 104.933 61.4174C104.695 62.1055 104.455 63.2524 104.4 63.9656C104.316 65.0592 104.373 65.4012 104.764 66.1456C105.377 67.3148 106.017 67.7452 107.344 67.882C109.896 68.1451 112.322 66.7224 116.62 62.4443C118.743 60.3307 119.461 59.4913 119.461 59.1248C119.461 57.9809 119.27 58.0243 117.743 59.5161C114.465 62.7157 110.961 64.1919 109.482 62.9957C109.078 62.6688 109.019 62.4557 109.043 61.4152C109.058 60.7539 109.225 59.7384 109.414 59.1586C109.916 57.6139 111.558 54.5131 112.637 53.0694C113.463 51.9642 113.638 51.8271 114.08 51.9378C114.357 52.007 115.084 52.1128 115.695 52.1728C117.045 52.3054 117.946 51.909 119.224 50.6191C120.018 49.8182 121.651 46.9584 121.651 46.3693C121.651 46.2005 121.175 46.0555 120.257 45.945L118.863 45.777L119.859 44.2857C121.312 42.1085 121.171 40.9835 119.455 41.0519C117.865 41.1151 116.579 42.157 114.906 44.7381C114.035 46.0814 114.033 46.0832 113.314 45.9303C111.36 45.5147 109.665 46.0386 108.522 47.4116C107.979 48.0627 106.72 50.3797 106.72 50.7265C106.72 50.7929 107.164 50.8472 107.706 50.8472C108.833 50.8472 109.767 51.1973 109.626 51.5662C109.374 52.2217 105.472 57.4385 104.277 58.7168C101.653 61.5247 97.8133 63.4991 96.9638 62.4769C96.1448 61.4913 98.0343 57.7783 101.026 54.4944C101.976 53.4511 102.141 53.157 102.139 52.5061C102.136 51.2131 101.912 50.2935 101.493 49.8435C101.162 49.489 100.953 49.4353 100.306 49.5387C97.9801 49.9101 93.9028 52.9606 90.279 57.0403C87.6163 60.0381 87.6625 59.9935 87.2106 59.9935C86.9301 59.9935 86.8128 59.8615 86.8138 59.5461C86.8154 59.0081 87.0635 58.6317 89.0178 56.2022C91.0843 53.6334 91.7894 52.5546 91.7894 51.9617C91.7894 51.3371 91.3564 51.0922 89.9626 50.9285L88.8906 50.8027L87.6223 52.1567C86.0434 53.8426 84.2545 56.239 83.2925 57.9569C81.9316 60.3874 79.1186 62.5784 77.3588 62.5784C74.1646 62.5784 74.6254 58.7723 78.27 55.0531C79.7495 53.5432 79.8447 53.3939 79.8447 52.5802C79.8447 51.8778 79.7129 51.5604 79.1479 50.9011C78.3828 50.0085 78.3193 49.853 78.7189 49.853C79.1115 49.853 79.6456 49.1905 79.6456 48.7034C79.6456 48.0051 79.2158 47.2811 78.5616 46.8773C77.948 46.4985 77.9341 46.4991 76.2392 46.9759C70.9339 48.4682 66.3404 50.8969 63.2124 53.8639C61.3881 55.5943 60.3959 56.9981 59.241 59.4835C58.0314 62.0864 56.3604 63.3737 54.1908 63.3737C53.3338 63.3737 53.0668 63.285 52.6852 62.8738C52.2022 62.3531 51.9737 61.5888 51.9737 60.4932C51.9737 59.9887 52.2993 59.4453 53.4789 57.9829C55.926 54.9485 58.1732 51.5175 58.2916 50.6346C58.4262 49.6321 57.9741 48.9195 57.0993 48.7555C56.2538 48.5972 55.7177 48.8155 54.2543 49.9153C52.125 51.5153 49.7058 54.6881 47.8902 58.2623L46.8922 60.2266L44.4063 61.5166C39.5894 64.0159 36.814 65.3986 36.7499 65.331C36.7143 65.2934 37.3525 64.1442 38.1681 62.7772C39.5577 60.4486 45.0027 49.859 45.285 48.936C45.3839 48.6127 45.2179 48.3266 44.5641 47.6929C44.0971 47.24 43.4198 46.7723 43.0589 46.6534C42.2371 46.3824 42.0978 46.4689 39.6182 48.7881C35.312 52.8156 30.6577 56.6714 26.7651 59.4362C23.802 61.5404 22.6229 62.1807 21.7097 62.1807C19.6614 62.1807 18.8631 59.6977 20.1352 57.2824C22.4242 52.9361 27.2913 48.1651 32.7626 44.9043C34.8258 43.6745 40.1842 40.9135 40.5173 40.9083C40.6216 40.9069 40.3797 41.241 39.9796 41.6512C39.3037 42.3439 38.5026 43.8216 38.6973 44.0163C38.8303 44.1489 40.6929 43.3705 42.1726 42.564C44.2819 41.4144 46.4162 39.9185 47.4317 38.8784L48.3642 37.9232L47.9712 36.7798C47.755 36.151 47.3313 35.2786 47.0297 34.8411L46.4811 34.0458L44.7979 34.0196C43.8722 34.0052 42.8907 34.0297 42.617 34.0738ZM57.7509 42.2373C56.2596 43.0086 55.6835 45.0031 56.5445 46.4134C57.6259 48.185 60.5169 48.0683 61.396 46.2178C62.5816 43.7224 60.106 41.0191 57.7509 42.2373ZM73.0437 54.0782C71.0336 56.6408 67.6943 60.1792 66.2685 61.2573C65.4073 61.9085 64.6468 61.9059 64.5536 61.2515C64.4045 60.2065 66.4489 57.6095 68.9234 55.7003C70.2541 54.6737 72.8246 53.24 73.3416 53.236C73.6483 53.2336 73.6008 53.3682 73.0437 54.0782Z" fill="white"/>
</svg>
