<svg width="20" height="20" viewBox="0 0 20 20" fill="none" xmlns="http://www.w3.org/2000/svg">
<mask id="mask0_970_572" style="mask-type:alpha" maskUnits="userSpaceOnUse" x="1" y="1" width="17" height="17">
<path d="M17.7261 7.72744C16.5825 3.45971 12.1958 0.927047 7.9281 2.07058C3.66037 3.21412 1.12771 7.60081 2.27124 11.8685C3.41478 16.1363 7.80147 18.6689 12.0692 17.5254C16.3369 16.3819 18.8696 11.9952 17.7261 7.72744Z" fill="#0B0B0B"/>
</mask>
<g mask="url(#mask0_970_572)">
<path d="M21.3661 7.78733C20.294 3.78634 16.1815 1.41197 12.1805 2.48403C8.17952 3.5561 5.80515 7.66862 6.87722 11.6696C7.94928 15.6706 12.0618 18.045 16.0628 16.9729C20.0638 15.9009 22.4382 11.7883 21.3661 7.78733Z" stroke="#0B0B0B"/>
</g>
<path d="M17.2431 7.85691C16.171 3.85592 12.0585 1.48155 8.05747 2.55361C4.05647 3.62568 1.68211 7.7382 2.75417 11.7392C3.82623 15.7402 7.93876 18.1146 11.9398 17.0425C15.9408 15.9704 18.3151 11.8579 17.2431 7.85691Z" stroke="#0B0B0B"/>
</svg>
