<svg width="30" height="30" viewBox="0 0 30 30" fill="none" xmlns="http://www.w3.org/2000/svg">
<mask id="mask0_294_1913" style="mask-type:alpha" maskUnits="userSpaceOnUse" x="1" y="2" width="28" height="26">
<path fill-rule="evenodd" clip-rule="evenodd" d="M1.32082 15.5579C0.994779 14.9932 1.18827 14.2711 1.75299 13.945L20.654 3.03255C21.2187 2.7065 21.9408 2.89999 22.2669 3.46472L23.8427 6.1941C22.3204 7.07337 21.7921 9.00821 22.6626 10.516C23.5331 12.0238 25.4729 12.5336 26.9955 11.655L28.5714 14.3845C28.8975 14.9493 28.704 15.6714 28.1393 15.9974L9.23825 26.9099C8.67353 27.2359 7.95142 27.0425 7.62538 26.4777L6.04938 23.748C6.04975 23.7478 6.05013 23.7476 6.0505 23.7474C7.57318 22.8682 8.10177 20.9331 7.23114 19.4252C6.36051 17.9172 4.42036 17.4074 2.89768 18.2865C2.8973 18.2867 2.89693 18.2869 2.89655 18.2872L1.32082 15.5579Z" fill="#D9D9D9"/>
</mask>
<g mask="url(#mask0_294_1913)">
<ellipse cx="17.168" cy="12.9699" rx="19.7121" ry="19.5217" transform="rotate(-30 17.168 12.9699)" fill="#D15A37"/>
<ellipse cx="13.0808" cy="13.1912" rx="13.0808" ry="13.1912" transform="matrix(-0.708827 -0.705382 0.708813 -0.705396 21.6895 29.564)" fill="url(#paint0_linear_294_1913)"/>
<g opacity="0.6" filter="url(#filter0_d_294_1913)">
<ellipse cx="20.2169" cy="7.0349" rx="8.53316" ry="8.45075" transform="rotate(-30 20.2169 7.0349)" fill="#FFD3C5"/>
</g>
</g>
<path d="M16.6297 16.9557L14.1462 12.6543L15.8598 11.6649C16.1893 11.4748 16.5059 11.375 16.8097 11.3658C17.1127 11.3551 17.3885 11.4246 17.637 11.5742C17.8861 11.7217 18.0931 11.9382 18.2581 12.2238C18.423 12.5095 18.5063 12.7974 18.508 13.0877C18.5097 13.378 18.4276 13.6522 18.2618 13.9103C18.0975 14.1676 17.8484 14.3926 17.5148 14.5853L16.4226 15.2158L16.0018 14.487L16.9455 13.9422C17.1223 13.8401 17.2505 13.7259 17.3303 13.5996C17.4107 13.4711 17.448 13.3366 17.4423 13.1961C17.4372 13.0534 17.3938 12.9113 17.3122 12.7699C17.2297 12.6271 17.1288 12.5192 17.0094 12.4463C16.8906 12.3711 16.7562 12.3376 16.6064 12.3457C16.4557 12.3524 16.2912 12.4072 16.1131 12.5101L15.4938 12.8676L17.548 16.4256L16.6297 16.9557Z" fill="#D15A37"/>
<path d="M12.7102 19.2192L10.2268 14.9177L11.9404 13.9284C12.2684 13.739 12.5819 13.6355 12.8809 13.6178C13.1805 13.598 13.4521 13.6586 13.6958 13.7999C13.94 13.9389 14.1442 14.1505 14.3083 14.4347C14.4732 14.7204 14.5529 15.002 14.5473 15.2797C14.5409 15.556 14.4512 15.8169 14.2781 16.0624C14.1065 16.3071 13.8538 16.5258 13.5202 16.7185L12.3728 17.3809L11.9508 16.65L12.9497 16.0733C13.125 15.972 13.2569 15.8642 13.3454 15.7496C13.4338 15.6351 13.4788 15.5139 13.4804 15.386C13.4834 15.2573 13.4441 15.1223 13.3624 14.9808C13.28 14.838 13.1815 14.7343 13.0669 14.6698C12.9538 14.6044 12.824 14.5804 12.6775 14.5978C12.5317 14.6129 12.3704 14.6715 12.1936 14.7735L11.5744 15.1311L13.6286 18.689L12.7102 19.2192ZM13.9257 15.9074L16.1353 17.2417L15.1216 17.827L12.9353 16.4793L13.9257 15.9074Z" fill="#D15A37"/>
<defs>
<filter id="filter0_d_294_1913" x="10.7394" y="-1.97324" width="18.955" height="18.8727" filterUnits="userSpaceOnUse" color-interpolation-filters="sRGB">
<feFlood flood-opacity="0" result="BackgroundImageFix"/>
<feColorMatrix in="SourceAlpha" type="matrix" values="0 0 0 0 0 0 0 0 0 0 0 0 0 0 0 0 0 0 127 0" result="hardAlpha"/>
<feMorphology radius="0.321154" operator="dilate" in="SourceAlpha" result="effect1_dropShadow_294_1913"/>
<feOffset dy="0.428205"/>
<feGaussianBlur stdDeviation="0.321154"/>
<feComposite in2="hardAlpha" operator="out"/>
<feColorMatrix type="matrix" values="0 0 0 0 0 0 0 0 0 0 0 0 0 0 0 0 0 0 0.1 0"/>
<feBlend mode="normal" in2="BackgroundImageFix" result="effect1_dropShadow_294_1913"/>
<feBlend mode="normal" in="SourceGraphic" in2="effect1_dropShadow_294_1913" result="shape"/>
</filter>
<linearGradient id="paint0_linear_294_1913" x1="3.10906" y1="23.2454" x2="22.2072" y2="5.59834" gradientUnits="userSpaceOnUse">
<stop stop-color="#FF6B3F"/>
<stop offset="1" stop-color="#FE9272"/>
</linearGradient>
</defs>
</svg>
