<svg width="30" height="30" viewBox="0 0 30 30" fill="none" xmlns="http://www.w3.org/2000/svg">
<mask id="mask0_294_1937" style="mask-type:alpha" maskUnits="userSpaceOnUse" x="7" y="1" width="21" height="27">
<path d="M14.5063 3.84833C12.9695 9.41961 10.3905 10.7233 7.10571 13.0483V27.8004H21.4077C22.2768 27.8004 23.0507 27.2505 23.3366 26.4297L27.2107 15.3107C27.5962 14.2043 26.7748 13.0483 25.6033 13.0483H19.048C18.452 13.0483 17.9938 12.5211 18.077 11.9309L19.1581 4.2602C19.2601 3.537 18.994 2.81067 18.4491 2.32439C17.6078 1.57365 16.3334 1.58612 15.507 2.3532L15.2621 2.5805C14.8951 2.92109 14.6395 3.36569 14.5063 3.84833Z" fill="#D9D9D9"/>
</mask>
<g mask="url(#mask0_294_1937)">
<circle cx="17.5319" cy="11.8422" r="23.3559" fill="#D15A37"/>
<circle cx="24.4791" cy="12.6701" r="15.6396" transform="rotate(-105 24.4791 12.6701)" fill="url(#paint0_linear_294_1937)"/>
<g opacity="0.6" filter="url(#filter0_d_294_1937)">
<circle cx="20.9135" cy="7.36321" r="10.1105" fill="#FFD3C5"/>
</g>
</g>
<rect x="2" y="11.6772" width="5.10675" height="17.2715" rx="1.02135" fill="#D15A37"/>
<defs>
<filter id="filter0_d_294_1937" x="9.96955" y="-3.21033" width="21.8878" height="21.8878" filterUnits="userSpaceOnUse" color-interpolation-filters="sRGB">
<feFlood flood-opacity="0" result="BackgroundImageFix"/>
<feColorMatrix in="SourceAlpha" type="matrix" values="0 0 0 0 0 0 0 0 0 0 0 0 0 0 0 0 0 0 127 0" result="hardAlpha"/>
<feMorphology radius="0.277809" operator="dilate" in="SourceAlpha" result="effect1_dropShadow_294_1937"/>
<feOffset dy="0.370412"/>
<feGaussianBlur stdDeviation="0.277809"/>
<feComposite in2="hardAlpha" operator="out"/>
<feColorMatrix type="matrix" values="0 0 0 0 0 0 0 0 0 0 0 0 0 0 0 0 0 0 0.1 0"/>
<feBlend mode="normal" in2="BackgroundImageFix" result="effect1_dropShadow_294_1937"/>
<feBlend mode="normal" in="SourceGraphic" in2="effect1_dropShadow_294_1937" result="shape"/>
</filter>
<linearGradient id="paint0_linear_294_1937" x1="12.5567" y1="24.5907" x2="35.214" y2="3.47817" gradientUnits="userSpaceOnUse">
<stop stop-color="#FF6B3F"/>
<stop offset="1" stop-color="#FE9272"/>
</linearGradient>
</defs>
</svg>
