<svg width="209" height="31" viewBox="0 0 209 31" fill="none" xmlns="http://www.w3.org/2000/svg">
<path d="M145.993 24V7.73031H155.749V9.47803H147.964V14.9754H155.018V16.7231H147.964V24H145.993ZM172.851 15.8652C172.851 17.5811 172.541 19.064 171.921 20.3139C171.302 21.5638 170.452 22.5277 169.371 23.2056C168.291 23.8835 167.057 24.2224 165.669 24.2224C164.282 24.2224 163.048 23.8835 161.967 23.2056C160.887 22.5277 160.037 21.5638 159.417 20.3139C158.797 19.064 158.488 17.5811 158.488 15.8652C158.488 14.1492 158.797 12.6663 159.417 11.4164C160.037 10.1665 160.887 9.20263 161.967 8.52473C163.048 7.84682 164.282 7.50787 165.669 7.50787C167.057 7.50787 168.291 7.84682 169.371 8.52473C170.452 9.20263 171.302 10.1665 171.921 11.4164C172.541 12.6663 172.851 14.1492 172.851 15.8652ZM170.944 15.8652C170.944 14.4564 170.708 13.2674 170.237 12.2982C169.771 11.329 169.138 10.5955 168.338 10.0977C167.544 9.59984 166.654 9.35092 165.669 9.35092C164.684 9.35092 163.792 9.59984 162.992 10.0977C162.198 10.5955 161.565 11.329 161.093 12.2982C160.627 13.2674 160.394 14.4564 160.394 15.8652C160.394 17.2739 160.627 18.4629 161.093 19.4321C161.565 20.4013 162.198 21.1348 162.992 21.6326C163.792 22.1305 164.684 22.3794 165.669 22.3794C166.654 22.3794 167.544 22.1305 168.338 21.6326C169.138 21.1348 169.771 20.4013 170.237 19.4321C170.708 18.4629 170.944 17.2739 170.944 15.8652ZM189.891 15.8652C189.891 17.5811 189.581 19.064 188.961 20.3139C188.342 21.5638 187.492 22.5277 186.411 23.2056C185.331 23.8835 184.097 24.2224 182.709 24.2224C181.322 24.2224 180.088 23.8835 179.007 23.2056C177.927 22.5277 177.077 21.5638 176.457 20.3139C175.838 19.064 175.528 17.5811 175.528 15.8652C175.528 14.1492 175.838 12.6663 176.457 11.4164C177.077 10.1665 177.927 9.20263 179.007 8.52473C180.088 7.84682 181.322 7.50787 182.709 7.50787C184.097 7.50787 185.331 7.84682 186.411 8.52473C187.492 9.20263 188.342 10.1665 188.961 11.4164C189.581 12.6663 189.891 14.1492 189.891 15.8652ZM187.984 15.8652C187.984 14.4564 187.749 13.2674 187.277 12.2982C186.811 11.329 186.178 10.5955 185.379 10.0977C184.584 9.59984 183.694 9.35092 182.709 9.35092C181.724 9.35092 180.832 9.59984 180.032 10.0977C179.238 10.5955 178.605 11.329 178.134 12.2982C177.667 13.2674 177.434 14.4564 177.434 15.8652C177.434 17.2739 177.667 18.4629 178.134 19.4321C178.605 20.4013 179.238 21.1348 180.032 21.6326C180.832 22.1305 181.724 22.3794 182.709 22.3794C183.694 22.3794 184.584 22.1305 185.379 21.6326C186.178 21.1348 186.811 20.4013 187.277 19.4321C187.749 18.4629 187.984 17.2739 187.984 15.8652ZM198.224 24H193.204V7.73031H198.447C200.025 7.73031 201.376 8.05602 202.498 8.70744C203.621 9.35357 204.482 10.283 205.08 11.4959C205.679 12.7034 205.978 14.1492 205.978 15.8334C205.978 17.5281 205.676 18.9872 205.072 20.2106C204.469 21.4287 203.589 22.3661 202.435 23.0229C201.28 23.6743 199.877 24 198.224 24ZM195.174 22.2523H198.097C199.442 22.2523 200.557 21.9928 201.442 21.4737C202.326 20.9547 202.986 20.2159 203.42 19.2573C203.854 18.2987 204.071 17.1574 204.071 15.8334C204.071 14.5199 203.857 13.3892 203.428 12.4412C202.999 11.4879 202.358 10.757 201.505 10.2486C200.653 9.73489 199.591 9.47803 198.32 9.47803H195.174V22.2523Z" fill="black"/>
<path d="M51.4458 23.4648L50.1438 20.526H41.569L40.2855 23.4648H35.8586L42.9082 7.58008H48.8045L56.1703 23.4648H51.4458ZM48.6743 17.2523L45.7913 10.7794L43.0012 17.2523H48.6743Z" fill="black"/>
<path d="M65.1359 23.6883C62.9225 23.6883 61.0996 23.2605 59.6488 22.4049C58.3468 21.6795 57.3981 20.6751 56.7657 19.373C56.2077 18.2756 55.9287 17.0666 55.9287 15.746V15.1694C55.9287 13.8859 56.2077 12.7141 56.7471 11.6539C57.3795 10.3518 58.3468 9.34742 59.6116 8.62201C61.0996 7.78499 62.9783 7.35718 65.2289 7.35718H65.9543C69.1164 7.35718 71.4973 7.97099 73.0969 9.19862C73.7851 9.71943 74.2687 10.296 74.5849 10.9657C74.9011 11.6353 75.0499 12.3049 75.0499 13.0117V13.0489H70.5114L70.251 12.5281C69.9534 11.9701 69.228 11.5237 68.0748 11.2075C67.461 11.0401 66.6426 10.9471 65.6009 10.9471C63.7967 10.9471 62.4575 11.4121 61.5832 12.3049C60.8578 13.0675 60.4858 14.0533 60.4858 15.2624V15.5414C60.4858 16.0994 60.5788 16.6388 60.7648 17.1782C60.9508 17.7176 61.2484 18.1826 61.639 18.5918C62.5877 19.5963 63.9641 20.0799 65.7311 20.0799C67.3308 20.0799 68.5584 19.7265 69.4512 19.0196C69.786 18.7406 70.0278 18.4802 70.1766 18.1826C70.2882 17.9222 70.3626 17.7362 70.3812 17.606H66.0659V14.7601H75.2173V23.4279H71.7205C71.7205 23.2419 71.7205 22.8699 71.7205 22.2933V20.6193C71.6089 20.7681 71.1439 21.3447 70.6788 21.7725C69.9906 22.4049 69.0792 22.9629 67.8888 23.3349C67.2006 23.5395 66.4003 23.6883 65.4517 23.6883H65.1359Z" fill="black"/>
<path d="M94.4871 17.2151C95.0823 17.8847 95.3799 18.7961 95.3799 19.9308V21.5676C95.3799 22.1814 95.4171 22.5906 95.4729 22.8138C95.5101 23.0184 95.5659 23.1858 95.6403 23.3532V23.4648H91.1018C91.0646 23.316 91.0274 23.2044 91.0088 23.13C90.9716 22.9812 90.953 22.7208 90.953 22.3674V21.0654C90.953 20.0052 90.7298 19.2425 90.2834 18.7775C89.837 18.3125 89.0744 18.0707 87.9955 18.0707H82.2852V23.4648H77.8955V7.58008H88.5908C91.2692 7.58008 93.1479 8.06369 94.2267 9.04951C94.9521 9.71913 95.3241 10.6491 95.3241 11.821V12.0256C95.3241 12.9928 95.0265 13.8112 94.4127 14.4622C93.7989 15.1132 92.9991 15.5597 91.976 15.8015C93.0921 16.0619 93.9477 16.5269 94.5429 17.1965L94.4871 17.2151ZM82.2666 14.4622H88.3862C89.2046 14.4622 89.8184 14.2948 90.209 13.9414C90.5252 13.6624 90.674 13.2718 90.674 12.7696V12.7324C90.674 12.2116 90.5252 11.821 90.209 11.5606C89.8556 11.2444 89.2418 11.0956 88.3862 11.0956H82.2666V14.4622Z" fill="black"/>
<path d="M107.508 7.31938C109.275 7.31938 110.781 7.54259 112.028 8.0076C113.274 8.47261 114.297 9.10502 115.059 9.92344C115.748 10.6489 116.25 11.4673 116.566 12.3787C116.882 13.2901 117.05 14.2201 117.05 15.1502V15.7826C117.05 16.7126 116.882 17.624 116.566 18.554C116.25 19.4655 115.748 20.2839 115.059 21.0279C114.278 21.8649 113.255 22.5345 112.009 22.9995C110.763 23.4645 109.256 23.7063 107.508 23.7063H106.578C104.29 23.7063 102.374 23.2785 100.812 22.4043C99.4537 21.6417 98.4865 20.6373 97.8727 19.3539C97.3147 18.2564 97.0356 17.066 97.0356 15.7826V15.1502C97.0356 13.8667 97.3147 12.6763 97.8727 11.5789C98.5051 10.2954 99.4723 9.29103 100.812 8.56561C102.355 7.72859 104.271 7.30078 106.578 7.30078H107.508V7.31938ZM112.474 15.3362C112.474 14.1457 112.121 13.1599 111.432 12.4159C110.54 11.4487 109.07 10.9651 107.043 10.9651C105.015 10.9651 103.602 11.4487 102.672 12.4159C101.965 13.1785 101.611 14.1457 101.611 15.3362V15.6338C101.611 16.1546 101.704 16.6754 101.872 17.1962C102.039 17.717 102.318 18.1634 102.709 18.554C103.639 19.5585 105.09 20.0607 107.061 20.0607C109.033 20.0607 110.54 19.5585 111.451 18.554C112.139 17.7914 112.493 16.8242 112.493 15.6338V15.3362H112.474Z" fill="black"/>
<path d="M126.852 23.7435C124.527 23.7435 122.704 23.4273 121.383 22.8135C120.286 22.2927 119.505 21.5673 119.04 20.6745C118.705 20.042 118.556 19.3166 118.556 18.4796V18.2378H123.336C123.374 18.8144 123.578 19.2794 123.969 19.6514C124.545 20.228 125.587 20.5257 127.057 20.5257H127.205C128.675 20.5257 129.716 20.321 130.33 19.9118C130.739 19.6328 130.944 19.2236 130.944 18.6284C130.944 18.1076 130.739 17.717 130.312 17.4752C129.791 17.1962 128.935 17.0474 127.708 16.9916L125.587 16.9358C123.15 16.8428 121.365 16.3592 120.212 15.4477C119.207 14.6665 118.724 13.6249 118.724 12.3043V12.1183C118.724 10.686 119.226 9.5886 120.212 8.82599C121.476 7.89596 123.615 7.41235 126.61 7.41235H127.336C130.46 7.41235 132.674 7.93317 133.976 8.95619C134.869 9.6816 135.315 10.7232 135.315 12.0811V12.3229H130.591C130.553 12.0997 130.479 11.8765 130.386 11.6905C130.293 11.5044 130.144 11.3184 129.921 11.1696C129.326 10.779 128.359 10.5744 127.019 10.5744H126.815C125.476 10.5744 124.545 10.7046 124.025 10.9464C123.56 11.1696 123.336 11.523 123.336 11.9881C123.336 12.4531 123.541 12.7879 123.932 13.0111C124.397 13.2901 125.234 13.4389 126.406 13.4947L128.6 13.5877C131.26 13.6807 133.139 14.1643 134.236 15.0199C135.166 15.7267 135.631 16.8056 135.631 18.2378V18.4982C135.631 20.0048 135.166 21.1767 134.218 22.0137C132.897 23.1855 130.646 23.7807 127.447 23.7807H126.833L126.852 23.7435Z" fill="black"/>
<path d="M27.4388 17.3619H18.4311L24.8058 23.7365C25.0235 23.9543 25.0433 24.2909 24.8454 24.5284C24.5682 24.865 24.291 25.1817 23.9743 25.4787C23.6773 25.7756 23.3606 26.0726 23.024 26.33C22.7865 26.5279 22.4499 26.5081 22.2321 26.2904L15.8575 19.9157V28.9234C15.8575 29.2401 15.6199 29.4777 15.323 29.5173C14.9072 29.5569 14.4717 29.5767 14.0361 29.5767C13.6006 29.5767 13.1849 29.5767 12.7691 29.5173C12.4722 29.4975 12.2346 29.2401 12.2346 28.9234V19.9157L5.85994 26.2904C5.64217 26.5081 5.30562 26.5279 5.06806 26.33C4.7711 26.0924 4.49394 25.835 4.23658 25.5777C4.15739 25.4985 4.0782 25.4193 3.99902 25.3401C3.74165 25.0629 3.48429 24.7858 3.24673 24.5086C3.04875 24.2711 3.06855 23.9345 3.28632 23.7167L9.66099 17.3421H0.653304C0.336551 17.3421 0.0989855 17.1045 0.0593913 16.8076C0.0197971 16.3918 0 15.9563 0 15.5207C0 15.0852 0 14.6695 0.0593913 14.2339C0.0791884 13.937 0.336551 13.6994 0.653304 13.6994H9.66099L3.28632 7.36434C3.06855 7.14657 3.04875 6.81002 3.24673 6.57245C3.52388 6.2359 3.80104 5.93895 4.098 5.62219C4.39496 5.30544 4.71171 5.02828 5.04826 4.75112C5.28583 4.55315 5.62238 4.57295 5.84015 4.79071L12.2148 11.1654V2.1577C12.2148 1.84095 12.4524 1.60338 12.7493 1.56379C13.1651 1.52419 13.6006 1.50439 14.0163 1.50439C14.4321 1.50439 14.8676 1.50439 15.3032 1.56379C15.6001 1.58358 15.8377 1.84095 15.8377 2.1577V11.1654L22.2124 4.79071C22.4301 4.57295 22.7667 4.55315 23.0042 4.75112C23.3408 5.02828 23.6377 5.30544 23.9545 5.62219C24.2515 5.91915 24.5484 6.2359 24.8256 6.57245C25.0235 6.81002 25.0037 7.14657 24.786 7.36434L18.4113 13.739H27.419C27.7357 13.739 27.9733 13.9766 28.0129 14.2735C28.0525 14.6893 28.0723 15.1248 28.0723 15.5603C28.0723 15.9959 28.0723 16.4116 28.0129 16.8472C27.9931 17.1441 27.7357 17.3817 27.419 17.3817L27.4388 17.3619Z" fill="#FF6B3F"/>
</svg>
